<svg preserveAspectRatio="none" width="100%" height="100%" overflow="visible" style="display: block;" viewBox="0 0 99 20.6458" fill="none" xmlns="http://www.w3.org/2000/svg">
<g id="BODTA">
<path id="Vector" d="M86.8554 20.6194H77.351L83.6873 3.05176e-05H92.6637L99 20.6194H89.4956L88.1755 16.3424L86.8554 20.6194ZM85.1657 9.63649L84.6905 10.3493C85.6938 10.8246 86.829 11.1414 88.0963 11.2998C89.3636 11.4582 90.6308 11.5374 91.8981 11.5374V10.7453C90.6308 10.7453 89.4164 10.6661 88.2547 10.5077C87.1106 10.3317 86.081 10.0413 85.1657 9.63649Z" fill="var(--fill-0, white)"/>
<path id="Vector_2" d="M60.3709 3.05176e-05H79.2742V6.73235H74.3107V20.6458H65.3343V6.73235H60.3709V3.05176e-05Z" fill="var(--fill-0, white)"/>
<path id="Vector_3" d="M48.5105 20.6194H41.3293V3.05176e-05H48.3257C50.2441 3.05176e-05 51.925 0.176039 53.3683 0.528057C54.8292 0.862473 56.0436 1.4345 57.0117 2.24414C57.9797 3.05378 58.7101 4.12743 59.203 5.46509C59.6958 6.80276 59.9422 8.47484 59.9422 10.4813C59.9422 12.523 59.7046 14.1951 59.2294 15.4976C58.7718 16.8 58.0677 17.8385 57.1173 18.6129C56.1844 19.3698 54.9964 19.889 53.5531 20.1706C52.1274 20.4698 50.4466 20.6194 48.5105 20.6194ZM46.3456 9.00286L45.8703 9.7157C46.504 9.92691 47.1904 10.1117 47.9296 10.2701C48.6689 10.4109 49.4169 10.5341 50.1737 10.6397C50.9482 10.7277 51.7138 10.7981 52.4706 10.851C53.2451 10.8862 53.9755 10.9038 54.662 10.9038V10.1117C53.9755 10.1117 53.2627 10.0853 52.5235 10.0325C51.7842 9.97971 51.0538 9.90931 50.3321 9.8213C49.6281 9.7157 48.9329 9.59249 48.2464 9.45169C47.56 9.31088 46.9264 9.16127 46.3456 9.00286Z" fill="var(--fill-0, white)"/>
<path id="Vector_4" d="M13.5175 20.6194H0V0H13.3326C14.0015 0 14.6351 0.0968048 15.2335 0.290415C15.8496 0.484024 16.3864 0.783238 16.844 1.18806C17.3016 1.59288 17.6624 2.1121 17.9265 2.74573C18.2081 3.37936 18.3489 4.1362 18.3489 5.01624C18.3489 6.2835 18.1025 7.31315 17.6096 8.10519C17.1168 8.89723 16.4832 9.51326 15.7088 9.95328C16.5536 10.3229 17.2488 10.9829 17.7945 11.9334C18.3577 12.8662 18.6393 13.9927 18.6393 15.3127C18.6393 16.1576 18.4985 16.9056 18.2169 17.5568C17.9353 18.2081 17.5568 18.7625 17.0816 19.2201C16.624 19.6777 16.0872 20.021 15.4711 20.2498C14.8551 20.4962 14.2039 20.6194 13.5175 20.6194ZM6.2571 4.91064L5.88748 5.54427C6.1867 5.66747 6.55632 5.78188 6.99634 5.88748C7.43636 5.97549 7.89398 6.06349 8.3692 6.1515C8.86203 6.2219 9.35485 6.2835 9.84767 6.33631C10.3581 6.37151 10.8245 6.38911 11.2469 6.38911V5.67627C10.8245 5.67627 10.3669 5.64987 9.87407 5.59707C9.39885 5.54427 8.93243 5.48266 8.47481 5.41226C8.03479 5.34186 7.62117 5.26265 7.23395 5.17465C6.84673 5.08665 6.52111 4.99864 6.2571 4.91064ZM5.99309 13.8871L5.62347 14.5207C5.92268 14.6439 6.3187 14.7583 6.81153 14.8639C7.30435 14.9519 7.82358 15.0399 8.3692 15.1279C8.93243 15.1983 9.48686 15.2599 10.0325 15.3127C10.5957 15.3479 11.0885 15.3655 11.511 15.3655V14.6527C11.0885 14.6527 10.6045 14.6263 10.0589 14.5735C9.53086 14.5207 9.00283 14.4591 8.47481 14.3887C7.96438 14.3183 7.48916 14.2391 7.04914 14.1511C6.60912 14.0631 6.2571 13.9751 5.99309 13.8871Z" fill="var(--fill-0, white)"/>
</g>
</svg>
