<svg width="769" height="161" viewBox="0 0 769 161" fill="none" xmlns="http://www.w3.org/2000/svg">
<path d="M674.665 160.165H600.837L650.055 0H719.781L769 160.165H695.172L684.918 126.942L674.665 160.165ZM661.54 74.8529L657.848 80.39C665.641 84.0814 674.459 86.5423 684.303 87.7728C694.147 89.0032 703.99 89.6184 713.834 89.6184V83.4661C703.99 83.4661 694.557 82.8509 685.534 81.6205C676.647 80.2533 668.649 77.9974 661.54 74.8529Z" fill="black"/>
<path d="M468.941 0H615.776V52.2945H577.221V160.37H507.495V52.2945H468.941V0Z" fill="black"/>
<path d="M376.814 160.165H321.033V0H375.378C390.28 0 403.337 1.36718 414.548 4.10154C425.895 6.69917 435.329 11.1425 442.848 17.4315C450.368 23.7205 456.042 32.0603 459.87 42.4508C463.698 52.8414 465.612 65.8296 465.612 81.4154C465.612 97.2746 463.766 110.263 460.075 120.38C456.52 130.497 451.051 138.563 443.669 144.579C436.423 150.458 427.194 154.491 415.983 156.678C404.909 159.003 391.853 160.165 376.814 160.165ZM359.997 69.9311L356.306 75.4682C361.228 77.1088 366.56 78.5443 372.302 79.7748C378.044 80.8685 383.855 81.8255 389.733 82.6458C395.749 83.3294 401.696 83.8763 407.575 84.2865C413.591 84.5599 419.265 84.6966 424.596 84.6966V78.5443C419.265 78.5443 413.727 78.3392 407.985 77.9291C402.243 77.5189 396.569 76.9721 390.964 76.2885C385.495 75.4682 380.095 74.5111 374.763 73.4174C369.431 72.3237 364.509 71.1616 359.997 69.9311Z" fill="black"/>
<path d="M104.999 160.165H0V0H103.564C108.759 0 113.681 0.751948 118.329 2.25585C123.114 3.75974 127.284 6.08394 130.839 9.22845C134.393 12.373 137.196 16.4061 139.247 21.328C141.434 26.2498 142.528 32.1287 142.528 38.9645C142.528 48.8082 140.614 56.8062 136.786 62.9585C132.958 69.1108 128.036 73.8959 122.021 77.3139C128.583 80.1849 133.983 85.3118 138.222 92.6946C142.597 99.9406 144.784 108.691 144.784 118.944C144.784 125.507 143.69 131.317 141.503 136.376C139.315 141.434 136.376 145.741 132.684 149.296C129.13 152.85 124.96 155.516 120.175 157.294C115.39 159.208 110.331 160.165 104.999 160.165ZM48.6031 38.1442L45.7321 43.0661C48.0563 44.0231 50.9273 44.9118 54.3453 45.7321C57.7632 46.4157 61.3179 47.0992 65.0092 47.7828C68.8373 48.3297 72.6654 48.8082 76.4935 49.2184C80.4583 49.4918 84.0814 49.6285 87.3626 49.6285V44.0915C84.0814 44.0915 80.5267 43.8864 76.6986 43.4762C73.0072 43.0661 69.3842 42.5876 65.8296 42.0407C62.4116 41.4938 59.1987 40.8786 56.191 40.195C53.1832 39.5114 50.6539 38.8278 48.6031 38.1442ZM46.5524 107.87L43.6813 112.792C46.0055 113.749 49.0816 114.638 52.9097 115.458C56.7378 116.142 60.771 116.825 65.0092 117.509C69.3842 118.056 73.6908 118.534 77.9291 118.944C82.304 119.218 86.1321 119.355 89.4134 119.355V113.817C86.1321 113.817 82.3724 113.612 78.1341 113.202C74.0326 112.792 69.9311 112.314 65.8296 111.767C61.8647 111.22 58.1734 110.605 54.7554 109.921C51.3375 109.237 48.6031 108.554 46.5524 107.87Z" fill="black"/>
<circle cx="228.865" cy="80.1849" r="79.9798" fill="#36DC9A"/>
<circle cx="229.07" cy="79.9798" r="52.2945" fill="#6C867C"/>
<circle cx="228.865" cy="80.1849" r="20.5076" fill="white"/>
</svg>
