<svg width="336" height="344" viewBox="0 0 336 344" fill="none" xmlns="http://www.w3.org/2000/svg">
<rect x="147.288" y="113" width="252.32" height="311.194" transform="rotate(17.8305 147.288 113)" fill="#FF7230"/>
<path d="M186.08 197.136L198.704 248.941L251.983 246.852L228.354 294.651L270.511 327.298L221.686 348.725L232.995 400.832L181.819 385.862L156.989 433.048L127.408 388.685L78.0565 408.871L83.9123 355.873L33.1318 339.614L71.6838 302.779L43.2352 257.682L96.4445 254.246L103.639 201.414L146.609 232.984L186.08 197.136Z" fill="#7BBAA2"/>
<circle cx="275.74" cy="112.74" r="90.2627" transform="rotate(17.03 275.74 112.74)" fill="#36DC9A"/>
<circle cx="276.029" cy="112.587" r="59.0179" transform="rotate(17.03 276.029 112.587)" fill="#6C867C"/>
<circle cx="275.741" cy="112.741" r="23.1443" transform="rotate(17.03 275.741 112.741)" fill="white"/>
</svg>
