<svg width="336" height="382" viewBox="0 0 336 382" fill="none" xmlns="http://www.w3.org/2000/svg">
<rect x="116" y="196.853" width="252.32" height="311.194" transform="rotate(-7.02352 116 196.853)" fill="#FF7230"/>
<path d="M186.08 235.136L198.704 286.941L251.983 284.852L228.354 332.651L270.511 365.298L221.686 386.725L232.995 438.832L181.819 423.863L156.989 471.048L127.408 426.686L78.0565 446.871L83.9123 393.873L33.1318 377.614L71.6838 340.779L43.2352 295.682L96.4445 292.246L103.639 239.414L146.609 270.984L186.08 235.136Z" fill="#7BBAA2"/>
<circle cx="116.302" cy="200.378" r="9.93732" transform="rotate(-39.8234 116.302 200.378)" fill="#36DC9A"/>
<circle cx="116.305" cy="200.342" r="6.49748" transform="rotate(-39.8234 116.305 200.342)" fill="#6C867C"/>
<circle cx="116.302" cy="200.378" r="2.54803" transform="rotate(-39.8234 116.302 200.378)" fill="white"/>
<circle cx="196.591" cy="133.427" r="9.93732" transform="rotate(-39.8234 196.591 133.427)" fill="#36DC9A"/>
<circle cx="196.595" cy="133.392" r="6.49748" transform="rotate(-39.8234 196.595 133.392)" fill="#6C867C"/>
<circle cx="196.591" cy="133.427" r="2.54803" transform="rotate(-39.8234 196.591 133.427)" fill="white"/>
<path fill-rule="evenodd" clip-rule="evenodd" d="M98.3324 192.156C98.3423 192.15 98.3552 192.153 98.3612 192.163C98.3679 192.174 98.3828 192.177 98.3927 192.168L190.693 115.202C191.912 114.186 193.048 113.075 194.091 111.879L217.97 84.497C220.186 81.9556 224.043 81.6921 226.584 83.9085C229.125 86.1247 229.389 89.9813 227.173 92.5225L200.757 122.814C200.723 122.853 200.664 122.857 200.624 122.823L200.609 122.809C200.523 122.735 200.405 122.851 200.477 122.938C200.51 122.977 200.505 123.035 200.466 123.067L104.97 202.698C104.93 202.731 104.87 202.726 104.837 202.686C104.762 202.596 104.624 202.694 104.683 202.794L104.691 202.807C104.718 202.853 104.703 202.911 104.658 202.938L70.9943 222.955C68.0274 224.719 64.192 223.744 62.4277 220.778C60.6633 217.811 61.6382 213.975 64.6054 212.211L98.3324 192.156Z" fill="#585858"/>
<rect x="421.105" y="298.352" width="339.743" height="29.0911" transform="rotate(-154.173 421.105 298.352)" fill="#65965E"/>
<path d="M115.3 150.339L127.974 124.154L77.3235 115.799L115.3 150.339Z" fill="#FF7230"/>
<path d="M77.3231 115.799L96.3293 118.907L93.145 120.349L93.9406 123.842L90.7077 125.385L91.562 128.756L77.3231 115.799Z" fill="#23296D"/>
</svg>
