<svg width="268" height="291" viewBox="0 0 268 291" fill="none" xmlns="http://www.w3.org/2000/svg">
<circle cx="2.74024" cy="112.74" r="90.2627" transform="rotate(17.03 2.74024 112.74)" fill="#36DC9A"/>
<circle cx="3.02916" cy="112.587" r="59.0179" transform="rotate(17.03 3.02916 112.587)" fill="#6C867C"/>
<circle cx="2.74126" cy="112.741" r="23.1443" transform="rotate(17.03 2.74126 112.741)" fill="white"/>
<circle cx="107.981" cy="107.397" r="9.93732" transform="rotate(28.3284 107.981 107.397)" fill="#36DC9A"/>
<circle cx="108.015" cy="107.386" r="6.49748" transform="rotate(28.3284 108.015 107.386)" fill="#6C867C"/>
<circle cx="107.981" cy="107.397" r="2.54803" transform="rotate(28.3284 107.981 107.397)" fill="white"/>
<circle cx="200.002" cy="157.004" r="9.93732" transform="rotate(28.3284 200.002 157.004)" fill="#36DC9A"/>
<circle cx="200.036" cy="156.993" r="6.49748" transform="rotate(28.3284 200.036 156.993)" fill="#6C867C"/>
<circle cx="200.002" cy="157.004" r="2.54803" transform="rotate(28.3284 200.002 157.004)" fill="white"/>
<path fill-rule="evenodd" clip-rule="evenodd" d="M108.925 87.6585C108.934 87.6655 108.936 87.6787 108.929 87.6879C108.921 87.6982 108.924 87.713 108.936 87.7192L214.723 144.747C216.12 145.5 217.574 146.141 219.072 146.664L253.374 158.638C256.557 159.749 258.237 163.231 257.126 166.414C256.015 169.598 252.533 171.278 249.35 170.166L211.403 156.921C211.354 156.904 211.328 156.85 211.345 156.801L211.352 156.781C211.39 156.674 211.238 156.607 211.184 156.707C211.16 156.752 211.104 156.769 211.06 156.745L101.61 97.7423C101.565 97.7176 101.547 97.6603 101.572 97.6143C101.627 97.5119 101.485 97.4197 101.414 97.5121L101.405 97.5234C101.373 97.5653 101.313 97.5733 101.271 97.5412L70.164 73.7459C67.4224 71.6487 66.8999 67.726 68.9971 64.9843C71.0943 62.2424 75.0173 61.7199 77.759 63.8173L108.925 87.6585Z" fill="#585858"/>
<rect x="-110.799" y="264.567" width="339.743" height="29.0911" transform="rotate(-28.4624 -110.799 264.567)" fill="#65965E"/>
<path d="M187.878 102.653L201.743 128.228L238.091 91.9776L187.878 102.653Z" fill="#FF7230"/>
<path d="M238.092 91.9773L224.474 105.596L225.162 102.168L221.861 100.776L222.495 97.2501L219.259 95.9759L238.092 91.9773Z" fill="#23296D"/>
</svg>
